<svg width="361" height="361" viewBox="0 0 361 361" fill="none" xmlns="http://www.w3.org/2000/svg">
<path d="M290.032 52.1939C287.658 48.2199 270.251 34.926 261.844 28.7758C269.559 26.505 288.301 30.1951 296.708 32.324L313.027 43.6782C318.466 48.6457 328.901 59.0064 327.12 60.7095C325.34 62.4127 315.499 61.8923 310.801 61.4192C304.867 59.9999 292.405 56.1679 290.032 52.1939Z" fill="url(#paint0_radial_1_6)"/>
<path d="M330.829 75.612C328.455 73.9088 329.84 70.1714 330.829 68.5156C331.571 68.5156 333.5 68.7994 335.28 69.9348C337.06 71.0703 336.022 74.6658 335.28 76.3216C334.785 76.7947 333.203 77.3151 330.829 75.612Z" fill="url(#paint1_radial_1_6)"/>
<path d="M344.181 115.352C342.994 113.081 348.632 104.944 351.599 101.159C358.126 105.133 360.253 111.804 360.5 114.642C358.126 123.158 354.071 127.179 352.341 128.125C343.439 114.642 345.665 118.19 344.181 115.352Z" fill="url(#paint2_radial_1_6)"/>
<path d="M296.708 145.866C297.301 140.757 300.417 138.06 301.9 137.351C303.878 139.006 307.686 142.886 307.092 145.157C306.499 147.427 303.384 151.78 301.9 153.672C299.526 152.537 297.449 147.995 296.708 145.866Z" fill="url(#paint3_radial_1_6)"/>
<path d="M279.647 117.481C280.24 114.074 283.85 109.438 285.581 107.546C288.301 109.202 293.444 113.649 292.257 118.19C291.07 122.732 287.312 126.233 285.581 127.416C283.356 125.523 279.053 120.887 279.647 117.481Z" fill="url(#paint4_radial_1_6)"/>
<path d="M275.938 96.9011V78.4505C275.345 62.5546 259.866 42.9686 252.201 35.1625C264.07 37.4334 278.905 53.6132 284.839 61.4192C318.071 62.5546 331.818 86.9662 334.538 99.03C339.285 120.035 327.12 137.587 320.444 143.737L311.543 129.545C317.477 118.758 309.948 109.911 305.441 106.836C307.513 112.103 307.338 116.35 306.351 118.9C297.449 106.41 282.367 99.03 275.938 96.9011Z" fill="url(#paint5_radial_1_6)"/>
<path d="M266.295 78.4505C263.328 54.0389 239.839 35.1625 228.465 28.7758C233.805 23.6664 259.866 20.0236 272.229 18.8409C188.557 -17.4926 117.693 8.43282 92.7205 25.9372C103.6 23.5718 133.518 20.2601 166.156 25.9372C198.794 31.6144 217.833 51.4842 223.272 60.7095C242.855 80.0117 242.806 113.223 240.333 127.416C251.015 122.306 254.179 120.556 254.427 120.319C259.619 116.534 269.262 102.862 266.295 78.4505Z" fill="url(#paint6_radial_1_6)"/>
<path d="M143.903 81.2891C50.7362 102.862 14.0927 183.004 7.41674 220.378C-3.97514 197.324 0.646584 162.793 7.42796 137.351C9.83109 128.335 12.5054 120.46 14.8345 114.642C21.0159 99.2666 40.0547 63.9739 66.7585 45.8071C93.4622 27.6404 139.205 29.2489 158.738 32.324C211.552 45.9491 227.228 78.214 228.465 92.6433C143.606 115.352 140.688 193.412 149.837 229.604C128.787 204.166 121.699 179.722 122.587 157.93C124.076 121.36 148.029 92.2618 166.156 78.4841C156.808 78.7754 149.005 79.9875 143.903 81.2891Z" fill="url(#paint7_radial_1_6)"/>
<path d="M170.606 253.022C150.43 232.584 154.288 184.423 158.738 162.898C170.606 234.997 232.421 261.537 261.844 265.795C239.839 270.053 190.783 273.459 170.606 253.022Z" fill="url(#paint8_radial_1_6)"/>
<path d="M77.1433 122.448C84.8577 110.526 120.908 97.6107 137.969 92.6433C78.0334 168.717 134.754 242.14 170.606 269.343C148.601 262.247 100.583 243.229 84.561 223.926C72.2264 209.067 68.6137 179.672 69.9109 155.801C70.72 140.912 73.4391 128.173 77.1433 122.448Z" fill="url(#paint9_radial_1_6)"/>
<path d="M258.877 351.661C228.613 365.286 169.123 360.177 143.161 355.919C111.507 347.299 86.1725 332.302 66.4662 315.47C35.5604 289.072 18.4976 258.159 12.6091 240.248C13.6478 233.292 15.0778 226.715 16.7998 220.526C16.8123 220.476 16.826 220.427 16.841 220.378C26.9382 184.221 46.992 161.339 57.1154 153.672C62.6657 278.454 177.665 333.914 245.525 349.083C250.219 350.132 254.687 350.988 258.877 351.661Z" fill="url(#paint10_radial_1_6)"/>
<path d="M322.67 315.47C319.703 317.741 294.235 334.394 281.872 342.436C182.345 329.227 128.228 283.381 111.949 260.118C111.436 259.385 110.961 258.675 110.523 257.989C144.348 275.02 178.519 280.224 191.376 280.698C202.44 288.392 219.141 294.766 237.366 299.891C240.783 300.852 244.254 301.769 247.751 302.642C269.407 308.051 292.076 311.792 309.318 313.974C314.266 314.6 318.768 315.098 322.67 315.47Z" fill="url(#paint11_radial_1_6)"/>
<path d="M265.553 301.277C240.63 297.303 216.102 284.955 206.953 279.278C230.097 287.226 270.993 274.547 288.548 267.214C315.845 264.376 343.439 275.02 353.824 280.698C322.373 278.994 281.872 293.708 265.553 301.277Z" fill="url(#paint12_radial_1_6)"/>
<path d="M328.604 309.793L279.647 305.535C297.449 294.748 331.571 291.579 346.406 291.342L340.929 297.019L328.604 309.793Z" fill="url(#paint13_radial_1_6)"/>
<path d="M275.938 78.4505V96.9011C282.367 99.03 297.449 106.41 306.351 118.9C307.338 116.35 307.513 112.103 305.441 106.836M275.938 78.4505C294.118 88.6815 302.323 98.9125 305.441 106.836M275.938 78.4505C275.345 62.5546 259.866 42.9686 252.201 35.1625C264.07 37.4334 278.905 53.6132 284.839 61.4192C318.071 62.5546 331.818 86.9662 334.538 99.03C339.285 120.035 327.12 137.587 320.444 143.737L311.543 129.544C317.477 118.758 309.948 109.911 305.441 106.836M7.41674 220.378C14.0927 183.004 50.7362 102.862 143.903 81.2891C149.005 79.9875 156.808 78.7754 166.156 78.4841M7.41674 220.378C-3.97514 197.324 0.646584 162.793 7.42796 137.351M7.41674 220.378C15.1312 151.058 50.1922 102.554 66.7585 86.9662M228.465 92.6433C227.228 78.214 211.552 45.9491 158.738 32.324M228.465 92.6433C207.44 80.7241 183.989 77.9284 166.156 78.4841M228.465 92.6433C143.606 115.352 140.688 193.412 149.837 229.604M228.465 92.6433C187.519 95.4818 157.502 117.481 147.612 128.125M228.465 92.6433C172.291 46.6587 97.2549 69.6983 66.7585 86.9662M158.738 32.324C139.205 29.2489 93.4622 27.6404 66.7585 45.8071C40.0547 63.9739 21.0159 99.2666 14.8345 114.642C12.5054 120.46 9.83109 128.335 7.42796 137.351M158.738 32.324C113.638 46.5168 78.6268 74.6658 66.7585 86.9662M166.156 78.4841C148.029 92.2618 124.076 121.36 122.587 157.93M149.837 229.604C128.787 204.166 121.699 179.722 122.587 157.93M149.837 229.604C127.603 189.864 139.089 145.393 147.612 128.125M137.969 92.6433C120.908 97.6107 84.8577 110.526 77.1433 122.448C73.4391 128.173 70.72 140.912 69.9109 155.801M137.969 92.6433C78.0334 168.717 134.754 242.14 170.606 269.343M137.969 92.6433C121.279 101.869 84.3013 127.416 69.9109 155.801M137.969 92.6433C120.403 109.616 92.4538 144.665 83.6983 180.638M84.561 223.926C100.583 243.229 148.601 262.247 170.606 269.343M84.561 223.926C72.2264 209.067 68.6137 179.672 69.9109 155.801M84.561 223.926C79.7496 210.118 80.1296 195.301 83.6983 180.638M170.606 269.343C113.045 236.984 88.6838 196.724 83.6983 180.638M57.1154 153.672C48.7087 169.284 35.4557 212.43 49.6977 260.118M57.1154 153.672C46.992 161.339 26.9382 184.221 16.841 220.378M57.1154 153.672C62.6657 278.454 177.665 333.914 245.525 349.083M279.647 305.535L328.604 309.793L340.929 297.019M279.647 305.535C297.449 294.748 331.571 291.579 346.406 291.342L340.929 297.019M279.647 305.535C293.056 302.696 324.085 297.019 340.929 297.019M122.587 157.93C128.703 148.705 142.271 129.828 147.612 128.125M111.949 260.118C111.436 259.385 110.961 258.675 110.523 257.989C144.348 275.02 178.519 280.224 191.376 280.698C202.44 288.392 219.141 294.766 237.366 299.891M111.949 260.118C128.228 283.381 182.345 329.227 281.872 342.436C294.235 334.394 319.703 317.741 322.67 315.47C318.768 315.098 314.266 314.6 309.318 313.974M111.949 260.118C133.232 275.279 188.112 304.459 237.366 299.891M237.366 299.891C240.783 300.852 244.254 301.769 247.751 302.642M168.381 305.535C172.314 306.103 178.213 306.686 185.442 307.028M247.751 302.642C225.096 307.341 201.846 307.805 185.442 307.028M247.751 302.642C269.407 308.051 292.076 311.792 309.318 313.974M185.442 307.028C208.437 314.995 265.405 327.538 309.318 313.974M49.6977 260.118C37.8667 249.71 14.732 227.191 16.841 220.378M49.6977 260.118L66.4662 315.47M49.6977 260.118C67.7475 286.784 132.183 341.91 245.525 349.083M16.841 220.378C15.1006 226.61 13.6561 233.237 12.6091 240.248C18.4976 258.159 35.5604 289.072 66.4662 315.47M66.4662 315.47C86.1725 332.302 111.507 347.299 143.161 355.919C169.123 360.177 228.613 365.286 258.877 351.661C254.687 350.988 250.219 350.132 245.525 349.083M7.42796 137.351C17.5618 124.104 43.6152 95.4818 66.7585 86.9662M261.844 28.7758C270.251 34.926 287.658 48.2199 290.032 52.1939C292.405 56.1679 304.867 59.9999 310.801 61.4192C315.499 61.8923 325.34 62.4127 327.12 60.7095C328.901 59.0064 318.466 48.6457 313.027 43.6782L296.708 32.324C288.301 30.1951 269.559 26.505 261.844 28.7758ZM330.829 68.5156C329.84 70.1714 328.455 73.9088 330.829 75.612C333.203 77.3151 334.785 76.7947 335.28 76.3216C336.022 74.6658 337.06 71.0703 335.28 69.9348C333.5 68.7994 331.571 68.5156 330.829 68.5156ZM351.599 101.159C348.632 104.944 342.994 113.081 344.181 115.352C345.665 118.19 343.439 114.642 352.341 128.125C354.071 127.179 358.126 123.158 360.5 114.642C360.253 111.804 358.126 105.133 351.599 101.159ZM301.9 137.351C300.417 138.06 297.301 140.757 296.708 145.866C297.449 147.995 299.526 152.537 301.9 153.672C303.384 151.78 306.499 147.427 307.092 145.157C307.686 142.886 303.878 139.006 301.9 137.351ZM285.581 107.546C283.85 109.438 280.24 114.074 279.647 117.481C279.053 120.887 283.356 125.523 285.581 127.416C287.312 126.233 291.07 122.732 292.257 118.19C293.444 113.649 288.301 109.202 285.581 107.546ZM228.465 28.7758C239.838 35.1625 263.328 54.0389 266.295 78.4505C269.262 102.862 259.619 116.534 254.427 120.319C254.179 120.556 251.015 122.306 240.333 127.416C242.806 113.223 242.855 80.0117 223.272 60.7095C217.833 51.4842 198.794 31.6144 166.156 25.9372C133.518 20.2601 103.6 23.5718 92.7205 25.9372C117.693 8.43282 188.557 -17.4926 272.229 18.8409C259.866 20.0236 233.805 23.6664 228.465 28.7758ZM158.738 162.898C154.288 184.423 150.43 232.584 170.606 253.022C190.783 273.459 239.838 270.053 261.844 265.795C232.421 261.537 170.606 234.997 158.738 162.898ZM206.953 279.278C216.102 284.955 240.63 297.303 265.553 301.277C281.872 293.708 322.373 278.994 353.824 280.698C343.439 275.02 315.845 264.376 288.548 267.214C270.993 274.547 230.097 287.226 206.953 279.278Z" stroke="black" stroke-opacity="0.09"/>
<defs>
<radialGradient id="paint0_radial_1_6" cx="0" cy="0" r="1" gradientTransform="matrix(-295.967 200.118 -200.118 -270.88 354.566 115.352)" gradientUnits="userSpaceOnUse">
<stop offset="0.4" stop-color="#9DE150"/>
<stop offset="1" stop-color="#113099"/>
</radialGradient>
<radialGradient id="paint1_radial_1_6" cx="0" cy="0" r="1" gradientTransform="matrix(-295.967 200.118 -200.118 -270.88 354.566 115.352)" gradientUnits="userSpaceOnUse">
<stop offset="0.4" stop-color="#9DE150"/>
<stop offset="1" stop-color="#113099"/>
</radialGradient>
<radialGradient id="paint2_radial_1_6" cx="0" cy="0" r="1" gradientTransform="matrix(-295.967 200.118 -200.118 -270.88 354.566 115.352)" gradientUnits="userSpaceOnUse">
<stop offset="0.4" stop-color="#9DE150"/>
<stop offset="1" stop-color="#113099"/>
</radialGradient>
<radialGradient id="paint3_radial_1_6" cx="0" cy="0" r="1" gradientTransform="matrix(-295.967 200.118 -200.118 -270.88 354.566 115.352)" gradientUnits="userSpaceOnUse">
<stop offset="0.4" stop-color="#9DE150"/>
<stop offset="1" stop-color="#113099"/>
</radialGradient>
<radialGradient id="paint4_radial_1_6" cx="0" cy="0" r="1" gradientTransform="matrix(-295.967 200.118 -200.118 -270.88 354.566 115.352)" gradientUnits="userSpaceOnUse">
<stop offset="0.4" stop-color="#9DE150"/>
<stop offset="1" stop-color="#113099"/>
</radialGradient>
<radialGradient id="paint5_radial_1_6" cx="0" cy="0" r="1" gradientTransform="matrix(-295.967 200.118 -200.118 -270.88 354.566 115.352)" gradientUnits="userSpaceOnUse">
<stop offset="0.4" stop-color="#9DE150"/>
<stop offset="1" stop-color="#113099"/>
</radialGradient>
<radialGradient id="paint6_radial_1_6" cx="0" cy="0" r="1" gradientTransform="matrix(-295.967 200.118 -200.118 -270.88 354.566 115.352)" gradientUnits="userSpaceOnUse">
<stop offset="0.4" stop-color="#9DE150"/>
<stop offset="1" stop-color="#113099"/>
</radialGradient>
<radialGradient id="paint7_radial_1_6" cx="0" cy="0" r="1" gradientTransform="matrix(-295.967 200.118 -200.118 -270.88 354.566 115.352)" gradientUnits="userSpaceOnUse">
<stop offset="0.4" stop-color="#9DE150"/>
<stop offset="1" stop-color="#113099"/>
</radialGradient>
<radialGradient id="paint8_radial_1_6" cx="0" cy="0" r="1" gradientTransform="matrix(-295.967 200.118 -200.118 -270.88 354.566 115.352)" gradientUnits="userSpaceOnUse">
<stop offset="0.4" stop-color="#9DE150"/>
<stop offset="1" stop-color="#113099"/>
</radialGradient>
<radialGradient id="paint9_radial_1_6" cx="0" cy="0" r="1" gradientTransform="matrix(-295.967 200.118 -200.118 -270.88 354.566 115.352)" gradientUnits="userSpaceOnUse">
<stop offset="0.4" stop-color="#9DE150"/>
<stop offset="1" stop-color="#113099"/>
</radialGradient>
<radialGradient id="paint10_radial_1_6" cx="0" cy="0" r="1" gradientTransform="matrix(-295.967 200.118 -200.118 -270.88 354.566 115.352)" gradientUnits="userSpaceOnUse">
<stop offset="0.4" stop-color="#9DE150"/>
<stop offset="1" stop-color="#113099"/>
</radialGradient>
<radialGradient id="paint11_radial_1_6" cx="0" cy="0" r="1" gradientTransform="matrix(-295.967 200.118 -200.118 -270.88 354.566 115.352)" gradientUnits="userSpaceOnUse">
<stop offset="0.4" stop-color="#9DE150"/>
<stop offset="1" stop-color="#113099"/>
</radialGradient>
<radialGradient id="paint12_radial_1_6" cx="0" cy="0" r="1" gradientTransform="matrix(-295.967 200.118 -200.118 -270.88 354.566 115.352)" gradientUnits="userSpaceOnUse">
<stop offset="0.4" stop-color="#9DE150"/>
<stop offset="1" stop-color="#113099"/>
</radialGradient>
<radialGradient id="paint13_radial_1_6" cx="0" cy="0" r="1" gradientTransform="matrix(-295.967 200.118 -200.118 -270.88 354.566 115.352)" gradientUnits="userSpaceOnUse">
<stop offset="0.4" stop-color="#9DE150"/>
<stop offset="1" stop-color="#113099"/>
</radialGradient>
</defs>
</svg>
